<?xml version="1.0" encoding="UTF-8"?>
<svg width="346px" height="372px" viewBox="0 0 346 372" version="1.1" xmlns="http://www.w3.org/2000/svg" xmlns:xlink="http://www.w3.org/1999/xlink" style="background: #1E252C;">
    <!-- Generator: Sketch 59.1 (86144) - https://sketch.com -->
    <title>neutral_do</title>
    <desc>Created with Sketch.</desc>
    <g id="neutral_do" stroke="none" stroke-width="1" fill="none" fill-rule="evenodd">
        <rect fill="#1E252C" x="0" y="0" width="346" height="372"></rect>
        <g id="Group" transform="translate(38.000000, 41.000000)" fill-rule="nonzero">
            <path d="M7.10542736e-14,-9.9475983e-14 L212.372576,-9.9475983e-14 L212.372576,241.063413 L7.10542736e-14,241.063413 L7.10542736e-14,-9.9475983e-14 Z M9.30254348,231.086731 L203.207788,231.086731 L203.207788,11.6427596 L9.30254348,11.6427596 L9.30254348,231.086731 Z" id="window-5" fill="#171717"></path>
            <polygon id="tag-5" fill="#171717" points="6.64004348 5.00521154 85.7730163 5.00521154 85.7730163 28.1266827 6.64004348 28.1266827"></polygon>
            <path d="M7,18 L225.991474,18 L225.991474,255.480833 L7,255.480833 L7,18 Z M16.592,245.651667 L216.540737,245.651667 L216.540737,29.4695 L16.592,29.4695 L16.592,245.651667 Z" id="window-4" stroke="#333333" stroke-width="0.47" fill="#333333"></path>
            <polygon id="tag-4" fill="#333333" points="13.8975789 22.109 95.6669474 22.109 95.6669474 48.0965 13.8975789 48.0965"></polygon>
            <path d="M14,34 L240.985108,34 L240.985108,268.117289 L14,268.117289 L14,34 Z M23.9419692,258.427338 L231.189292,258.427338 L231.189292,45.3080597 L23.9419692,45.3080597 L23.9419692,258.427338 Z" id="window-3" fill="#696969"></path>
            <polygon id="tag-3" fill="#696969" points="17.268 42.399204 114.677785 42.399204 114.677785 67.2858209 17.268 67.2858209"></polygon>
            <path d="M25.0185051,50 L253.769843,50 L253.769843,279.924112 L25.0185051,279.924112 L25.0185051,50 Z M35.0378333,270.407716 L243.898556,270.407716 L243.898556,61.1053807 L35.0378333,61.1053807 L35.0378333,270.407716 Z" id="window-2" fill="#B0B0B0"></path>
            <polygon id="tag-2" fill="#B0B0B0" points="25 53.6111168 125.884909 53.6111168 125.884909 81.2986802 25 81.2986802"></polygon>
            <path d="M36,66 L270.978108,66 L270.978108,289.965 L36,289.965 L36,66 Z M46.2921576,280.695833 L260.838246,280.695833 L260.838246,76.8173333 L46.2921576,76.8173333 L46.2921576,280.695833 Z" id="window-1" fill="#EDEDED"></path>
            <polygon id="tag-1" fill="#EDEDED" points="36.0837044 69.5175 140.580552 69.5175 140.580552 89.2645 36.0837044 89.2645"></polygon>
            <path d="M163.871665,128 C169.358956,128 174.934601,130.244667 178.531567,134.612667 C182.127369,138.9795 183.74333,145.469667 183.74333,152.133667 C183.74333,158.797667 182.127369,165.287833 178.531567,169.654667 C174.934601,174.0215 169.358956,176.266167 163.871665,176.266167 C158.384374,176.266167 153.134246,174.352833 149.538443,169.984833 C145.941478,165.618 144,158.797667 144,152.133667 C144,145.469667 145.615961,139.309667 149.211764,134.942833 C152.808729,130.576 158.384374,128 163.871665,128 Z M152.143744,152.463833 C152.143744,169.725929 161.015636,170.87109 164.5227,170.87109 C168.730681,170.87109 175.599586,169.725929 175.599586,152.133667 C175.599586,134.541404 168.061691,134.098454 164.5227,134.098454 C161.016296,134.098454 152.143744,135.201737 152.143744,152.463833 Z" id="Letter-O" fill="#F5E652"></path>
            <path d="M120.412941,166.61513 C116.387291,173.001661 112.12104,173.410948 108.049617,174.435348 C103.978194,175.460931 88,174.776026 88,174.776026 L88,127.169813 C88,127.169813 104.540377,126.787733 107.380631,127.169813 C110.220886,127.553076 120.998597,130.741019 123.421029,142.812615 C124.465586,148.847822 124.438592,160.227416 120.412941,166.61513 Z M116.070403,145.111009 C114.676096,136.388231 108.474482,134.083922 106.839575,133.808304 C105.204668,133.531503 95.6851193,133.808304 95.6851193,133.808304 L95.6851193,168.207327 C95.6851193,168.207327 104.880738,168.701783 107.223361,167.961282 C109.567158,167.22078 112.022453,166.925052 114.339256,162.310521 C116.656059,157.694806 116.671316,149.472398 116.070403,145.111009 Z" id="Letter-D" stroke="#BF3A3A" stroke-width="0.57" fill="#BF3A3A"></path>
            <polygon id="brow-left" stroke="#0499FF" stroke-width="11.94" points="82 105.5 108.486714 105.5 135.5 105.5"></polygon>
            <polygon id="brow-right" stroke="#0499FF" stroke-width="11.94" points="135 105.5 161.486714 105.5 188.5 105.5"></polygon>
            <path d="M82,191 C93.2239907,191 100.165647,191 102.824969,191 C104.388816,191 114.966624,191 134.558391,191 C141.300195,191 152.927497,191 169.440297,191 C173.371543,191 179.891444,191 189,191" id="Lip-upper" stroke="#3FC1B2" stroke-width="8.36"></path>
            <path d="M82,206.5 C93.2239907,206.5 100.165647,206.5 102.824969,206.5 C104.388816,206.5 114.966624,206.5 134.558391,206.5 C141.300195,206.5 152.927497,206.5 169.440297,206.5 C173.371543,206.5 179.891444,206.5 189,206.5" id="Lip-Lower" stroke="#3FC1B2" stroke-width="8.36"></path>
        </g>
    </g>
</svg>